<svg xmlns="http://www.w3.org/2000/svg" version="1.1" xmlns:xlink="http://www.w3.org/1999/xlink" xmlns:svgjs="http://svgjs.com/svgjs" width="1440" height="560" preserveAspectRatio="none" viewBox="0 0 1440 560">
    <g mask="url(&quot;#SvgjsMask1000&quot;)" fill="none">
        <rect width="1440" height="560" x="0" y="0" fill="#0e2a47"></rect>
        <use xlink:href="#SvgjsSymbol1007" x="0" y="0"></use>
        <use xlink:href="#SvgjsSymbol1007" x="720" y="0"></use>
    </g>
    <defs>
        <mask id="SvgjsMask1000">
            <rect width="1440" height="560" fill="#ffffff"></rect>
        </mask>
        <path d="M-1 0 a1 1 0 1 0 2 0 a1 1 0 1 0 -2 0z" id="SvgjsPath1005"></path>
        <path d="M-3 0 a3 3 0 1 0 6 0 a3 3 0 1 0 -6 0z" id="SvgjsPath1004"></path>
        <path d="M-5 0 a5 5 0 1 0 10 0 a5 5 0 1 0 -10 0z" id="SvgjsPath1001"></path>
        <path d="M2 -2 L-2 2z" id="SvgjsPath1002"></path>
        <path d="M6 -6 L-6 6z" id="SvgjsPath1003"></path>
        <path d="M30 -30 L-30 30z" id="SvgjsPath1006"></path>
    </defs>
    <symbol id="SvgjsSymbol1007">
        <use xlink:href="#SvgjsPath1001" x="30" y="30" stroke="#1c538e"></use>
        <use xlink:href="#SvgjsPath1002" x="30" y="90" stroke="#1c538e"></use>
        <use xlink:href="#SvgjsPath1001" x="30" y="150" stroke="#1c538e"></use>
        <use xlink:href="#SvgjsPath1001" x="30" y="210" stroke="#1c538e"></use>
        <use xlink:href="#SvgjsPath1002" x="30" y="270" stroke="#1c538e"></use>
        <use xlink:href="#SvgjsPath1003" x="30" y="330" stroke="#1c538e"></use>
        <use xlink:href="#SvgjsPath1003" x="30" y="390" stroke="#1c538e"></use>
        <use xlink:href="#SvgjsPath1002" x="30" y="450" stroke="#1c538e"></use>
        <use xlink:href="#SvgjsPath1001" x="30" y="510" stroke="#1c538e"></use>
        <use xlink:href="#SvgjsPath1001" x="30" y="570" stroke="#1c538e"></use>
        <use xlink:href="#SvgjsPath1003" x="90" y="30" stroke="#1c538e"></use>
        <use xlink:href="#SvgjsPath1003" x="90" y="90" stroke="#1c538e"></use>
        <use xlink:href="#SvgjsPath1002" x="90" y="150" stroke="#1c538e"></use>
        <use xlink:href="#SvgjsPath1004" x="90" y="210" stroke="#1c538e"></use>
        <use xlink:href="#SvgjsPath1001" x="90" y="270" stroke="#1c538e"></use>
        <use xlink:href="#SvgjsPath1001" x="90" y="330" stroke="#1c538e"></use>
        <use xlink:href="#SvgjsPath1003" x="90" y="390" stroke="#1c538e"></use>
        <use xlink:href="#SvgjsPath1003" x="90" y="450" stroke="#1c538e"></use>
        <use xlink:href="#SvgjsPath1005" x="90" y="510" stroke="#1c538e"></use>
        <use xlink:href="#SvgjsPath1005" x="90" y="570" stroke="#1c538e"></use>
        <use xlink:href="#SvgjsPath1003" x="150" y="30" stroke="#1c538e"></use>
        <use xlink:href="#SvgjsPath1001" x="150" y="90" stroke="#1c538e"></use>
        <use xlink:href="#SvgjsPath1004" x="150" y="150" stroke="#1c538e"></use>
        <use xlink:href="#SvgjsPath1001" x="150" y="210" stroke="#1c538e"></use>
        <use xlink:href="#SvgjsPath1003" x="150" y="270" stroke="#1c538e"></use>
        <use xlink:href="#SvgjsPath1003" x="150" y="330" stroke="#1c538e"></use>
        <use xlink:href="#SvgjsPath1001" x="150" y="390" stroke="#1c538e"></use>
        <use xlink:href="#SvgjsPath1001" x="150" y="450" stroke="#1c538e"></use>
        <use xlink:href="#SvgjsPath1001" x="150" y="510" stroke="#1c538e"></use>
        <use xlink:href="#SvgjsPath1001" x="150" y="570" stroke="#1c538e"></use>
        <use xlink:href="#SvgjsPath1002" x="210" y="30" stroke="#1c538e"></use>
        <use xlink:href="#SvgjsPath1003" x="210" y="90" stroke="#1c538e"></use>
        <use xlink:href="#SvgjsPath1003" x="210" y="150" stroke="#1c538e"></use>
        <use xlink:href="#SvgjsPath1001" x="210" y="210" stroke="#1c538e"></use>
        <use xlink:href="#SvgjsPath1005" x="210" y="270" stroke="#1c538e"></use>
        <use xlink:href="#SvgjsPath1001" x="210" y="330" stroke="#1c538e"></use>
        <use xlink:href="#SvgjsPath1003" x="210" y="390" stroke="#1c538e"></use>
        <use xlink:href="#SvgjsPath1003" x="210" y="450" stroke="#1c538e"></use>
        <use xlink:href="#SvgjsPath1003" x="210" y="510" stroke="#1c538e"></use>
        <use xlink:href="#SvgjsPath1003" x="210" y="570" stroke="#1c538e"></use>
        <use xlink:href="#SvgjsPath1003" x="270" y="30" stroke="#1c538e"></use>
        <use xlink:href="#SvgjsPath1003" x="270" y="90" stroke="#1c538e"></use>
        <use xlink:href="#SvgjsPath1002" x="270" y="150" stroke="#1c538e"></use>
        <use xlink:href="#SvgjsPath1005" x="270" y="210" stroke="#1c538e"></use>
        <use xlink:href="#SvgjsPath1002" x="270" y="270" stroke="#1c538e"></use>
        <use xlink:href="#SvgjsPath1003" x="270" y="330" stroke="#1c538e"></use>
        <use xlink:href="#SvgjsPath1003" x="270" y="390" stroke="#1c538e"></use>
        <use xlink:href="#SvgjsPath1003" x="270" y="450" stroke="#1c538e"></use>
        <use xlink:href="#SvgjsPath1002" x="270" y="510" stroke="#1c538e"></use>
        <use xlink:href="#SvgjsPath1003" x="270" y="570" stroke="#1c538e"></use>
        <use xlink:href="#SvgjsPath1001" x="330" y="30" stroke="#1c538e"></use>
        <use xlink:href="#SvgjsPath1001" x="330" y="90" stroke="#1c538e"></use>
        <use xlink:href="#SvgjsPath1001" x="330" y="150" stroke="#1c538e"></use>
        <use xlink:href="#SvgjsPath1001" x="330" y="210" stroke="#1c538e"></use>
        <use xlink:href="#SvgjsPath1001" x="330" y="270" stroke="#1c538e"></use>
        <use xlink:href="#SvgjsPath1001" x="330" y="330" stroke="#1c538e"></use>
        <use xlink:href="#SvgjsPath1001" x="330" y="390" stroke="#1c538e"></use>
        <use xlink:href="#SvgjsPath1003" x="330" y="450" stroke="#1c538e"></use>
        <use xlink:href="#SvgjsPath1004" x="330" y="510" stroke="#1c538e"></use>
        <use xlink:href="#SvgjsPath1001" x="330" y="570" stroke="#1c538e"></use>
        <use xlink:href="#SvgjsPath1002" x="390" y="30" stroke="#1c538e"></use>
        <use xlink:href="#SvgjsPath1005" x="390" y="90" stroke="#1c538e"></use>
        <use xlink:href="#SvgjsPath1001" x="390" y="150" stroke="#1c538e"></use>
        <use xlink:href="#SvgjsPath1001" x="390" y="210" stroke="#1c538e"></use>
        <use xlink:href="#SvgjsPath1002" x="390" y="270" stroke="#1c538e"></use>
        <use xlink:href="#SvgjsPath1002" x="390" y="330" stroke="#1c538e"></use>
        <use xlink:href="#SvgjsPath1001" x="390" y="390" stroke="#1c538e"></use>
        <use xlink:href="#SvgjsPath1005" x="390" y="450" stroke="#1c538e"></use>
        <use xlink:href="#SvgjsPath1002" x="390" y="510" stroke="#1c538e"></use>
        <use xlink:href="#SvgjsPath1001" x="390" y="570" stroke="#1c538e"></use>
        <use xlink:href="#SvgjsPath1004" x="450" y="30" stroke="#1c538e"></use>
        <use xlink:href="#SvgjsPath1003" x="450" y="90" stroke="#1c538e"></use>
        <use xlink:href="#SvgjsPath1001" x="450" y="150" stroke="#1c538e"></use>
        <use xlink:href="#SvgjsPath1001" x="450" y="210" stroke="#1c538e"></use>
        <use xlink:href="#SvgjsPath1001" x="450" y="270" stroke="#1c538e"></use>
        <use xlink:href="#SvgjsPath1003" x="450" y="330" stroke="#1c538e"></use>
        <use xlink:href="#SvgjsPath1001" x="450" y="390" stroke="#1c538e"></use>
        <use xlink:href="#SvgjsPath1002" x="450" y="450" stroke="#1c538e"></use>
        <use xlink:href="#SvgjsPath1001" x="450" y="510" stroke="#1c538e"></use>
        <use xlink:href="#SvgjsPath1001" x="450" y="570" stroke="#1c538e"></use>
        <use xlink:href="#SvgjsPath1006" x="510" y="30" stroke="#1c538e" stroke-width="3"></use>
        <use xlink:href="#SvgjsPath1003" x="510" y="90" stroke="#1c538e"></use>
        <use xlink:href="#SvgjsPath1002" x="510" y="150" stroke="#1c538e"></use>
        <use xlink:href="#SvgjsPath1003" x="510" y="210" stroke="#1c538e"></use>
        <use xlink:href="#SvgjsPath1001" x="510" y="270" stroke="#1c538e"></use>
        <use xlink:href="#SvgjsPath1005" x="510" y="330" stroke="#1c538e"></use>
        <use xlink:href="#SvgjsPath1004" x="510" y="390" stroke="#1c538e"></use>
        <use xlink:href="#SvgjsPath1005" x="510" y="450" stroke="#1c538e"></use>
        <use xlink:href="#SvgjsPath1003" x="510" y="510" stroke="#1c538e"></use>
        <use xlink:href="#SvgjsPath1004" x="510" y="570" stroke="#1c538e"></use>
        <use xlink:href="#SvgjsPath1003" x="570" y="30" stroke="#1c538e"></use>
        <use xlink:href="#SvgjsPath1005" x="570" y="90" stroke="#1c538e"></use>
        <use xlink:href="#SvgjsPath1001" x="570" y="150" stroke="#1c538e"></use>
        <use xlink:href="#SvgjsPath1005" x="570" y="210" stroke="#1c538e"></use>
        <use xlink:href="#SvgjsPath1003" x="570" y="270" stroke="#1c538e"></use>
        <use xlink:href="#SvgjsPath1003" x="570" y="330" stroke="#1c538e"></use>
        <use xlink:href="#SvgjsPath1001" x="570" y="390" stroke="#1c538e"></use>
        <use xlink:href="#SvgjsPath1001" x="570" y="450" stroke="#1c538e"></use>
        <use xlink:href="#SvgjsPath1002" x="570" y="510" stroke="#1c538e"></use>
        <use xlink:href="#SvgjsPath1003" x="570" y="570" stroke="#1c538e"></use>
        <use xlink:href="#SvgjsPath1001" x="630" y="30" stroke="#1c538e"></use>
        <use xlink:href="#SvgjsPath1005" x="630" y="90" stroke="#1c538e"></use>
        <use xlink:href="#SvgjsPath1004" x="630" y="150" stroke="#1c538e"></use>
        <use xlink:href="#SvgjsPath1003" x="630" y="210" stroke="#1c538e"></use>
        <use xlink:href="#SvgjsPath1003" x="630" y="270" stroke="#1c538e"></use>
        <use xlink:href="#SvgjsPath1001" x="630" y="330" stroke="#1c538e"></use>
        <use xlink:href="#SvgjsPath1001" x="630" y="390" stroke="#1c538e"></use>
        <use xlink:href="#SvgjsPath1002" x="630" y="450" stroke="#1c538e"></use>
        <use xlink:href="#SvgjsPath1001" x="630" y="510" stroke="#1c538e"></use>
        <use xlink:href="#SvgjsPath1003" x="630" y="570" stroke="#1c538e"></use>
        <use xlink:href="#SvgjsPath1003" x="690" y="30" stroke="#1c538e"></use>
        <use xlink:href="#SvgjsPath1001" x="690" y="90" stroke="#1c538e"></use>
        <use xlink:href="#SvgjsPath1001" x="690" y="150" stroke="#1c538e"></use>
        <use xlink:href="#SvgjsPath1003" x="690" y="210" stroke="#1c538e"></use>
        <use xlink:href="#SvgjsPath1001" x="690" y="270" stroke="#1c538e"></use>
        <use xlink:href="#SvgjsPath1004" x="690" y="330" stroke="#1c538e"></use>
        <use xlink:href="#SvgjsPath1001" x="690" y="390" stroke="#1c538e"></use>
        <use xlink:href="#SvgjsPath1004" x="690" y="450" stroke="#1c538e"></use>
        <use xlink:href="#SvgjsPath1004" x="690" y="510" stroke="#1c538e"></use>
        <use xlink:href="#SvgjsPath1003" x="690" y="570" stroke="#1c538e"></use>
    </symbol>
</svg>