<svg xmlns="http://www.w3.org/2000/svg"
	xmlns:xlink="http://www.w3.org/1999/xlink" viewBox="0 0 500 500">
	<defs>
		<clipPath id="freepik--clip-path--inject-30">
			<path d="M177.22,447.51c-.53.25-4.38.39-9.29.47-10,.17-24.39.09-24.39.09s-.78,0-1.08-3.9,1.62-7,1.84-8.63c1-7.48-1.55-10.6-1.59-11.15s14-.86,14-.86l4.6-.31-1,6.58a7.3,7.3,0,0,0-.1,1.13A9.89,9.89,0,0,0,168,441l.21,0h0c.33-.31,6-2.93,8.32.69C177.8,443.66,177.22,447.51,177.22,447.51Z" style="fill:#263238;stroke:#263238;stroke-linecap:round;stroke-linejoin:round"></path>
		</clipPath>
		<clipPath id="freepik--clip-path-2--inject-30">
			<path d="M164.35,414.62c.47,2.51,1.64,3.22.88,4.4-.11.18-.22.39-.33.61-.59,1.22-1.22,2.94-3.54,3.59-2.73.77-15.8,1.48-18.62,1.13s-4.42-3-4.58-5.24,1.06-3.64.87-6.15-2.15-3.24-2.28-4.91,1.49-4.1,1.47-5.77c0-3.52.06.32.76-19.69.39-11.41,3.15-13.89,0-26.83-1.14-4.67-13.38-89.22-13.38-89.22l37.75,2.26s.6,14.4,1.28,31.41c.86,21.64,1.85,47.5,1.88,53.32.06,11.82-1,28.38-1.89,43.08-.37,6.27-1,10.59,0,13a2.26,2.26,0,0,1,.21.8C165,412,163.87,412.11,164.35,414.62Z" style="fill:#407BFF;stroke:#263238;stroke-linecap:round;stroke-linejoin:round"></path>
		</clipPath>
		<clipPath id="freepik--clip-path-3--inject-30">
			<path d="M126.77,423.27s-14.14.29-14.19.85,2,3.67-.33,11.14c-.5,1.63-3,4.72-3.32,8.61s.41,3.89.41,3.89,32,.18,33.77-.55c0,0,1.24-3.84.33-5.75-1.8-3.79-8.41-.73-8.2-.69l-.21,0c-4.93-1.09-7.41-6-5.73-11.2l2.13-6.57Z" style="fill:#263238;stroke:#263238;stroke-linecap:round;stroke-linejoin:round"></path>
		</clipPath>
		<clipPath id="freepik--clip-path-4--inject-30">
			<path d="M160,268.8l-37.36-2.26s-2.29,84.41-2,89.07c.93,12.92-2.25,15.39-4.61,26.79-4.14,20-3.58,16.14-4.14,19.65-.27,1.67-2.31,4.1-2.47,5.77s1.68,2.4,1.44,4.9-1.72,3.92-1.93,6.14.92,4.88,3.68,5.23,16-.36,18.82-1.13,3.63-3,4.59-4.19-.08-1.89-.13-4.4,1.08-2.58,1.23-4.22a2.14,2.14,0,0,0-.07-.8c-.61-2.39.77-6.7,2.21-13,3.4-14.67,7.33-31.21,9.29-43,1-5.88,4.51-32.22,7.39-54,0,0,2.76-4.45,4.16-13.07" style="fill:#407BFF;stroke:#263238;stroke-linecap:round;stroke-linejoin:round"></path>
		</clipPath>
		<clipPath id="freepik--clip-path-5--inject-30">
			<path d="M154.33,194.11l-4.1-1.43c2.78,9.55.37,20.4-6.66,16.11s-9.82-16.62-11.92-22c-1.1-.34-5.57-.5-7.89,1.28,2.42,4.43,9,13.23,8.23,20.38-.88,8-7.17,15.1-18.92,7.06,1.6,12.12,6.68,20.86,7.66,25,3.58,15,1.19,17.05-.48,31.85h0c17,8.67,37.57,4.36,46.58,1.72C164.08,259,165.29,221,154.33,194.11Z" style="fill:#407BFF;stroke:#263238;stroke-linecap:round;stroke-linejoin:round"></path>
		</clipPath>
	</defs>
	<g id="freepik--background-simple--inject-30">
		<path d="M439.18,136.26c-22.71-34.47-65.88-54.94-107.6-51s-80.12,32-95.73,70.11c-8,19.45-10.5,41.27-22.42,58.67-12.22,17.84-32.59,28.48-52.57,37.37s-41,17.08-56.73,32-25,38.92-15.73,58.36c9.48,19.76,33.42,27.66,50.71,41.46s28.28,34.1,45.93,47.44C201.35,443,222.38,448.42,243,448.38s40.9-5.24,60.16-12.43c59.73-22.29,116-63.77,139.83-121.83C487.1,206.6,439.18,136.26,439.18,136.26Z" style="fill:#407BFF"></path>
		<g style="opacity:0.7000000000000001">
			<path d="M439.18,136.26c-22.71-34.47-65.88-54.94-107.6-51s-80.12,32-95.73,70.11c-8,19.45-10.5,41.27-22.42,58.67-12.22,17.84-32.59,28.48-52.57,37.37s-41,17.08-56.73,32-25,38.92-15.73,58.36c9.48,19.76,33.42,27.66,50.71,41.46s28.28,34.1,45.93,47.44C201.35,443,222.38,448.42,243,448.38s40.9-5.24,60.16-12.43c59.73-22.29,116-63.77,139.83-121.83C487.1,206.6,439.18,136.26,439.18,136.26Z" style="fill:#fff"></path>
		</g>
	</g>
	<g id="freepik--Plant--inject-30">
		<path d="M358.93,406.79s14.5-.08,30.58-22.48c14.05-19.59-12.62-80.24-27.57-94.19s-44.05,62.24-40.67,81.54C326.08,399.16,346.81,406.09,358.93,406.79Z" style="fill:#407BFF"></path>
		<path d="M382.46,369.11,360.14,391.3l2.25,56.54H355c-.09-.39.19-39.34.43-84.77l-17.11-16.41c1.3,0-1-2.22-1.26-2.44L355.51,357c.15-28.39.29-51.25.29-51.25l1.67-2.09.93,30.36,15.78-11.36c-.23.22-2.56,2.44-1.26,2.44l-14.36,14.28,1.34,43.74,24.36-17.53C383.93,365.93,380.59,369.11,382.46,369.11Z" style="fill:none;stroke:#263238;stroke-miterlimit:10"></path>
		<path d="M425.27,425.2s17.64-1.27,26.44-18c9.5-18.09-13.67-61-25.51-64.18-13-3.51-33.52,30.78-29.32,57.42C399.76,418.62,417.12,424.74,425.27,425.2Z" style="fill:#407BFF"></path>
		<path d="M438.51,392.4l-12.3,9.77c-.38-22.94-.7-41.26-.7-41.26L424,359.19l-.56,23.43v.51L413,374.94s1.67,1.7.81,1.71l9.5,10.33-.64,26.94L406.9,401.51s2.36,2.41,1.15,2.42l14.47,15.74-.08,3.11-.09,3.35-.49,21.25,5.1-.06c-.12-6.83-.23-14-.34-21.16-.1-6.1-.22-12.21-.3-18.08,0-.44,0-.85,0-1.28l11.3-12.37C436.58,394.44,438.51,392.4,438.51,392.4Z" style="fill:none;stroke:#263238;stroke-miterlimit:10"></path>
		<path d="M403.3,438.35c-1.64-1.32-4.59-1.29-7.18-1.18.19-1.65.88-3.28,1.08-4.94a4.64,4.64,0,0,0-1.81-4.58c-2.84-2-7.84-1.22-11.76-.08.54-3.88-3.59-7.66-9.12-8.26s-11.68,2.1-13.3,5.89c-2.24-2.14-6.71-3-10.44-2s-6.38,3.79-6.19,6.48c-2.86-.19-6.05-.32-8.42.91-3.48,1.82-3.24,5.5-5.92,7.88a4.87,4.87,0,0,0-4.7,1.72c-.91,1.19-1.07,2.55-1.62,3.83-1.12,2.56-4.84,2.88-8.39,4l88.84.74c1.93-.62,3.58-1.94,3.5-3.37s-2.47-2.59-4.32-1.88C404.19,443.54,405.21,439.87,403.3,438.35Z" style="fill:#407BFF"></path>
		<path d="M443.24,442.24c-1-.8-2.82-.79-4.4-.72.11-1,.53-2,.66-3a2.84,2.84,0,0,0-1.11-2.81c-1.74-1.22-4.81-.75-7.21-.05.33-2.38-2.2-4.7-5.59-5.06s-7.16,1.28-8.15,3.6c-1.37-1.31-4.12-1.83-6.4-1.21s-3.91,2.32-3.79,4c-1.76-.12-3.71-.21-5.16.55-2.14,1.12-2,3.37-3.63,4.83a3,3,0,0,0-2.89,1.06,10.15,10.15,0,0,0-1,2.34c-.68,1.57-3,1.76-5.14,2.45l54.45.45c1.18-.38,2.19-1.19,2.15-2.06s-1.52-1.59-2.65-1.15C443.78,445.43,444.41,443.18,443.24,442.24Z" style="fill:#407BFF"></path>
	</g>
	<g id="freepik--Clouds--inject-30">
		<path d="M223.31,269.49A16.32,16.32,0,0,0,197.76,283v.1a5.72,5.72,0,0,0-8.53-.55,12.84,12.84,0,0,0-25.61,1.3,3.87,3.87,0,0,0-6.05,2.53h90.87a11.47,11.47,0,0,0-18.93-8.71,16.55,16.55,0,0,0-2.33-4.4" style="fill:none;stroke:#263238;stroke-linecap:round;stroke-linejoin:round"></path>
		<path d="M379.47,149.89a19.83,19.83,0,0,1,26.37,18.71v.12a6.95,6.95,0,0,1,10.35-.67,15.59,15.59,0,0,1,31.08,1.58,4.57,4.57,0,0,1,2.7-.86,4.69,4.69,0,0,1,4.64,3.93H344.34a13.91,13.91,0,0,1,23-10.57,19.89,19.89,0,0,1,4.82-7.64" style="fill:none;stroke:#263238;stroke-linecap:round;stroke-linejoin:round"></path>
		<path d="M41.05,126.87H151.32a13.91,13.91,0,0,0-23-10.57,19.81,19.81,0,0,0-38.53,6.47v.12a6.95,6.95,0,0,0-10.35-.67,15.59,15.59,0,0,0-31.08,1.58,4.57,4.57,0,0,0-2.7-.86A4.69,4.69,0,0,0,41.05,126.87Z" style="fill:#fff;stroke:#263238;stroke-miterlimit:10"></path>
	</g>
	<g id="freepik--Buildings--inject-30">
		<line x1="188.01" y1="165.85" x2="191.43" y2="187.23" style="fill:none;stroke:#407BFF;stroke-miterlimit:10"></line>
		<line x1="175.08" y1="173.42" x2="189.31" y2="190.65" style="fill:none;stroke:#407BFF;stroke-miterlimit:10"></line>
		<line x1="172.83" y1="188.05" x2="186.15" y2="193.26" style="fill:none;stroke:#407BFF;stroke-miterlimit:10"></line>
		<line x1="105.25" y1="225.26" x2="105.25" y2="208.79" style="fill:#fff;stroke:#263238;stroke-linecap:round;stroke-linejoin:round"></line>
		<rect x="66.47" y="213.12" width="38.78" height="12.15" transform="translate(171.72 438.38) rotate(180)" style="fill:#fff;stroke:#263238;stroke-linecap:round;stroke-linejoin:round"></rect>
		<line x1="66.47" y1="225.26" x2="66.47" y2="208.79" style="fill:#fff;stroke:#263238;stroke-linecap:round;stroke-linejoin:round"></line>
		<rect x="202.93" y="311.61" width="78.38" height="136.48" transform="translate(484.24 759.69) rotate(180)" style="fill:#fff;stroke:#263238;stroke-linecap:round;stroke-linejoin:round"></rect>
		<rect x="124.81" y="261.01" width="78.38" height="187.08" transform="translate(327.99 709.09) rotate(180)" style="fill:#fff;stroke:#263238;stroke-linecap:round;stroke-linejoin:round"></rect>
		<rect x="46.05" y="224.93" width="78.38" height="223.16" transform="translate(170.49 673.02) rotate(180)" style="fill:#fff;stroke:#263238;stroke-linecap:round;stroke-linejoin:round"></rect>
		<line x1="109.85" y1="239" x2="109.85" y2="439.63" style="fill:none;stroke:#407BFF;stroke-linecap:round;stroke-linejoin:round"></line>
		<line x1="92.71" y1="239" x2="92.71" y2="439.63" style="fill:none;stroke:#407BFF;stroke-linecap:round;stroke-linejoin:round"></line>
		<line x1="75.57" y1="239" x2="75.57" y2="439.63" style="fill:none;stroke:#407BFF;stroke-linecap:round;stroke-linejoin:round"></line>
		<line x1="58.44" y1="239" x2="58.44" y2="439.63" style="fill:none;stroke:#407BFF;stroke-linecap:round;stroke-linejoin:round"></line>
		<polyline points="190.17 270.66 190.17 289.33 190.17 307.99 190.17 326.66 190.17 345.32 190.17 364 190.17 382.67 190.17 401.33 190.17 420 190.17 438.67 190.17 439.03" style="fill:none;stroke:#407BFF;stroke-linecap:round;stroke-linejoin:round"></polyline>
		<polyline points="173.03 270.66 173.03 289.33 173.03 307.99 173.03 326.66 173.03 345.32 173.03 364 173.03 382.67 173.03 401.33 173.03 420 173.03 438.67 173.03 439.03" style="fill:none;stroke:#407BFF;stroke-linecap:round;stroke-linejoin:round"></polyline>
		<polyline points="155.88 270.66 155.88 289.33 155.88 307.99 155.88 326.66 155.88 345.32 155.88 364 155.88 382.67 155.88 401.33 155.88 420 155.88 438.67 155.88 439.03" style="fill:none;stroke:#407BFF;stroke-linecap:round;stroke-linejoin:round"></polyline>
		<polyline points="138.75 270.66 138.75 289.33 138.75 307.99 138.75 326.66 138.75 345.32 138.75 364 138.75 382.67 138.75 401.33 138.75 420 138.75 438.67 138.75 439.03" style="fill:none;stroke:#407BFF;stroke-linecap:round;stroke-linejoin:round"></polyline>
		<polyline points="190.17 270.66 186.81 270.66 170.79 270.66 154.76 270.66 138.75 270.66" style="fill:none;stroke:#407BFF;stroke-linecap:round;stroke-linejoin:round"></polyline>
		<polyline points="190.17 289.33 186.81 289.33 170.79 289.33 154.76 289.33 138.75 289.33" style="fill:none;stroke:#407BFF;stroke-linecap:round;stroke-linejoin:round"></polyline>
		<polyline points="190.17 307.99 186.81 307.99 170.79 307.99 154.76 307.99 138.75 307.99" style="fill:none;stroke:#407BFF;stroke-linecap:round;stroke-linejoin:round"></polyline>
		<polyline points="190.17 326.66 186.81 326.66 170.79 326.66 154.76 326.66 138.75 326.66" style="fill:none;stroke:#407BFF;stroke-linecap:round;stroke-linejoin:round"></polyline>
		<polyline points="190.17 345.32 186.81 345.32 170.79 345.32 154.76 345.32 138.75 345.32" style="fill:none;stroke:#407BFF;stroke-linecap:round;stroke-linejoin:round"></polyline>
		<polyline points="190.17 364 186.81 364 170.79 364 154.76 364 138.75 364" style="fill:none;stroke:#407BFF;stroke-linecap:round;stroke-linejoin:round"></polyline>
		<polyline points="190.17 382.67 186.81 382.67 170.79 382.67 154.76 382.67 138.75 382.67" style="fill:none;stroke:#407BFF;stroke-linecap:round;stroke-linejoin:round"></polyline>
		<polyline points="190.17 401.33 186.81 401.33 170.79 401.33 154.76 401.33 138.75 401.33" style="fill:none;stroke:#407BFF;stroke-linecap:round;stroke-linejoin:round"></polyline>
		<polyline points="190.17 420 186.81 420 170.79 420 154.76 420 138.75 420" style="fill:none;stroke:#407BFF;stroke-linecap:round;stroke-linejoin:round"></polyline>
		<polyline points="190.17 438.67 186.81 438.67 170.79 438.67 154.76 438.67 138.75 438.67" style="fill:none;stroke:#407BFF;stroke-linecap:round;stroke-linejoin:round"></polyline>
		<line x1="273.64" y1="322.86" x2="214.39" y2="322.86" style="fill:none;stroke:#407BFF;stroke-linecap:round;stroke-linejoin:round"></line>
		<line x1="273.64" y1="341.53" x2="214.39" y2="341.53" style="fill:none;stroke:#407BFF;stroke-linecap:round;stroke-linejoin:round"></line>
		<line x1="273.64" y1="360.19" x2="214.39" y2="360.19" style="fill:none;stroke:#407BFF;stroke-linecap:round;stroke-linejoin:round"></line>
		<line x1="273.64" y1="378.86" x2="214.39" y2="378.86" style="fill:none;stroke:#407BFF;stroke-linecap:round;stroke-linejoin:round"></line>
		<line x1="273.64" y1="397.53" x2="214.39" y2="397.53" style="fill:none;stroke:#407BFF;stroke-linecap:round;stroke-linejoin:round"></line>
		<line x1="273.64" y1="416.2" x2="214.39" y2="416.2" style="fill:none;stroke:#407BFF;stroke-linecap:round;stroke-linejoin:round"></line>
		<line x1="273.64" y1="434.86" x2="214.39" y2="434.86" style="fill:none;stroke:#407BFF;stroke-linecap:round;stroke-linejoin:round"></line>
	</g>
	<g id="freepik--Floor--inject-30">
		<polyline points="454.61 448.67 418.77 448.67 414.6 448.67 41.05 448.67" style="fill:none;stroke:#263238;stroke-linecap:round;stroke-linejoin:round"></polyline>
	</g>
	<g id="freepik--Character--inject-30">
		<path d="M177.22,447.51c-.53.25-4.38.39-9.29.47-10,.17-24.39.09-24.39.09s-.78,0-1.08-3.9,1.62-7,1.84-8.63c1-7.48-1.55-10.6-1.59-11.15s14-.86,14-.86l4.6-.31-1,6.58a7.3,7.3,0,0,0-.1,1.13A9.89,9.89,0,0,0,168,441l.21,0h0c.33-.31,6-2.93,8.32.69C177.8,443.66,177.22,447.51,177.22,447.51Z" style="fill:#263238"></path>
		<g style="clip-path:url(#freepik--clip-path--inject-30)">
			<path d="M177.22,447.51c-.53.25-4.38.39-9.29.47-10,.17-24.39.09-24.39.09s-.78,0-1.08-3.9,1.62-7,1.84-8.63c1-7.48-1.55-10.6-1.59-11.15s14-.86,14-.86l4.6-.31-1,6.58a7.3,7.3,0,0,0-.1,1.13A9.89,9.89,0,0,0,168,441l.21,0h0c.33-.31,6-2.93,8.32.69C177.8,443.66,177.22,447.51,177.22,447.51Z" style="fill:#fff;opacity:0.2"></path>
			<path d="M167.93,448c-10,.17-24.39.09-24.39.09s-.78,0-1.08-3.9,1.62-7,1.84-8.63c1-7.48-1.55-10.6-1.59-11.15s14-.86,14-.86l4.6-.31-1,6.58a7.3,7.3,0,0,0-.1,1.13c-3.17,2.62-5.69,4.73-5.69,4.73S167.37,439.92,167.93,448Z" style="opacity:0.30000000000000004"></path>
		</g>
		<path d="M177.22,447.51c-.53.25-4.38.39-9.29.47-10,.17-24.39.09-24.39.09s-.78,0-1.08-3.9,1.62-7,1.84-8.63c1-7.48-1.55-10.6-1.59-11.15s14-.86,14-.86l4.6-.31-1,6.58a7.3,7.3,0,0,0-.1,1.13A9.89,9.89,0,0,0,168,441l.21,0h0c.33-.31,6-2.93,8.32.69C177.8,443.66,177.22,447.51,177.22,447.51Z" style="fill:none;stroke:#263238;stroke-linecap:round;stroke-linejoin:round"></path>
		<path d="M164.35,414.62c.47,2.51,1.64,3.22.88,4.4-.11.18-.22.39-.33.61-.59,1.22-1.22,2.94-3.54,3.59-2.73.77-15.8,1.48-18.62,1.13s-4.42-3-4.58-5.24,1.06-3.64.87-6.15-2.15-3.24-2.28-4.91,1.49-4.1,1.47-5.77c0-3.52.06.32.76-19.69.39-11.41,3.15-13.89,0-26.83-1.14-4.67-13.38-89.22-13.38-89.22l37.75,2.26s.6,14.4,1.28,31.41c.86,21.64,1.85,47.5,1.88,53.32.06,11.82-1,28.38-1.89,43.08-.37,6.27-1,10.59,0,13a2.26,2.26,0,0,1,.21.8C165,412,163.87,412.11,164.35,414.62Z" style="fill:#407BFF"></path>
		<g style="clip-path:url(#freepik--clip-path-2--inject-30)">
			<path d="M164.9,419.63c-.59,1.22-1.22,2.94-3.54,3.59-2.73.77-15.8,1.48-18.62,1.13s-4.42-3-4.58-5.24,1.06-3.64.87-6.15-2.15-3.24-2.28-4.91,1.49-4.1,1.47-5.77c0-3.52.06.32.76-19.69.39-11.41,3.15-13.89,0-26.83-1.14-4.67-13.38-89.22-13.38-89.22l37.75,2.26s.6,14.4,1.28,31.41c-4.55,18.92-9.83,39.74-11.81,43.24l3.12,5.45s-7.46,17.31-7.46,19.4S151,389.94,151.87,394s-3.39,1.17-3.39,4.59C148.48,401.74,148.14,417.07,164.9,419.63Z" style="opacity:0.30000000000000004"></path>
		</g>
		<path d="M164.35,414.62c.47,2.51,1.64,3.22.88,4.4-.11.18-.22.39-.33.61-.59,1.22-1.22,2.94-3.54,3.59-2.73.77-15.8,1.48-18.62,1.13s-4.42-3-4.58-5.24,1.06-3.64.87-6.15-2.15-3.24-2.28-4.91,1.49-4.1,1.47-5.77c0-3.52.06.32.76-19.69.39-11.41,3.15-13.89,0-26.83-1.14-4.67-13.38-89.22-13.38-89.22l37.75,2.26s.6,14.4,1.28,31.41c.86,21.64,1.85,47.5,1.88,53.32.06,11.82-1,28.38-1.89,43.08-.37,6.27-1,10.59,0,13a2.26,2.26,0,0,1,.21.8C165,412,163.87,412.11,164.35,414.62Z" style="fill:none;stroke:#263238;stroke-linecap:round;stroke-linejoin:round"></path>
		<path d="M161.46,296.13s-4.63,4-8.58,3.28" style="fill:none;stroke:#263238;stroke-linecap:round;stroke-linejoin:round"></path>
		<path d="M161,303.69s-7.8-1.88-8.69-3.46" style="fill:none;stroke:#263238;stroke-linecap:round;stroke-linejoin:round"></path>
		<path d="M151,339.32s4.21,11,8.89,13.66" style="fill:none;stroke:#263238;stroke-linecap:round;stroke-linejoin:round"></path>
		<path d="M160.1,412.33s-9.35,2.89-14,.78,3.67,4.83,12.41,4.22" style="fill:none;stroke:#263238;stroke-linecap:round;stroke-linejoin:round"></path>
		<path d="M146.86,362.46s.08,29.25,7.71,35.07" style="fill:none;stroke:#263238;stroke-linecap:round;stroke-linejoin:round"></path>
		<path d="M154.7,428.05a16.88,16.88,0,0,1,5.66-1.19" style="fill:none;stroke:#263238;stroke-linecap:round;stroke-linejoin:round"></path>
		<path d="M154.87,431.84s2.71-1,4.67-1.4" style="fill:none;stroke:#263238;stroke-linecap:round;stroke-linejoin:round"></path>
		<line x1="155.38" y1="435.47" x2="159.75" y2="434.16" style="fill:none;stroke:#263238;stroke-linecap:round;stroke-linejoin:round"></line>
		<line x1="157.51" y1="438.44" x2="161.1" y2="437.03" style="fill:none;stroke:#263238;stroke-linecap:round;stroke-linejoin:round"></line>
		<line x1="161.58" y1="440.99" x2="163.67" y2="439.38" style="fill:none;stroke:#263238;stroke-linecap:round;stroke-linejoin:round"></line>
		<path d="M155.6,424.44s-.35,10,2.81,13.29,6.51,3.36,6.22,4.62" style="fill:none;stroke:#263238;stroke-linecap:round;stroke-linejoin:round"></path>
		<path d="M126.77,423.27s-14.14.29-14.19.85,2,3.67-.33,11.14c-.5,1.63-3,4.72-3.32,8.61s.41,3.89.41,3.89,32,.18,33.77-.55c0,0,1.24-3.84.33-5.75-1.8-3.79-8.41-.73-8.2-.69l-.21,0c-4.93-1.09-7.41-6-5.73-11.2l2.13-6.57Z" style="fill:#263238"></path>
		<g style="clip-path:url(#freepik--clip-path-3--inject-30)">
			<path d="M126.77,423.27s-14.14.29-14.19.85,2,3.67-.33,11.14c-.5,1.63-3,4.72-3.32,8.61s.41,3.89.41,3.89,32,.18,33.77-.55c0,0,1.24-3.84.33-5.75-1.8-3.79-8.41-.73-8.2-.69l-.21,0c-4.93-1.09-7.41-6-5.73-11.2l2.13-6.57Z" style="fill:#fff;opacity:0.25"></path>
		</g>
		<path d="M126.77,423.27s-14.14.29-14.19.85,2,3.67-.33,11.14c-.5,1.63-3,4.72-3.32,8.61s.41,3.89.41,3.89,32,.18,33.77-.55c0,0,1.24-3.84.33-5.75-1.8-3.79-8.41-.73-8.2-.69l-.21,0c-4.93-1.09-7.41-6-5.73-11.2l2.13-6.57Z" style="fill:none;stroke:#263238;stroke-linecap:round;stroke-linejoin:round"></path>
		<path d="M160,268.8l-37.36-2.26s-2.29,84.41-2,89.07c.93,12.92-2.25,15.39-4.61,26.79-4.14,20-3.58,16.14-4.14,19.65-.27,1.67-2.31,4.1-2.47,5.77s1.68,2.4,1.44,4.9-1.72,3.92-1.93,6.14.92,4.88,3.68,5.23,16-.36,18.82-1.13,3.63-3,4.59-4.19-.08-1.89-.13-4.4,1.08-2.58,1.23-4.22a2.14,2.14,0,0,0-.07-.8c-.61-2.39.77-6.7,2.21-13,3.4-14.67,7.33-31.21,9.29-43,1-5.88,4.51-32.22,7.39-54,0,0,2.76-4.45,4.16-13.07" style="fill:#407BFF"></path>
		<g style="clip-path:url(#freepik--clip-path-4--inject-30)">
			<path d="M122.52,269.47l-.33,12.61a117.46,117.46,0,0,0,19,0c12.34-1.1,19.85-6.57,19.85-6.57l-1-6.71s-14,3.77-20.89,3.24S125.66,270.68,122.52,269.47Z" style="opacity:0.30000000000000004"></path>
		</g>
		<path d="M160,268.8l-37.36-2.26s-2.29,84.41-2,89.07c.93,12.92-2.25,15.39-4.61,26.79-4.14,20-3.58,16.14-4.14,19.65-.27,1.67-2.31,4.1-2.47,5.77s1.68,2.4,1.44,4.9-1.72,3.92-1.93,6.14.92,4.88,3.68,5.23,16-.36,18.82-1.13,3.63-3,4.59-4.19-.08-1.89-.13-4.4,1.08-2.58,1.23-4.22a2.14,2.14,0,0,0-.07-.8c-.61-2.39.77-6.7,2.21-13,3.4-14.67,7.33-31.21,9.29-43,1-5.88,4.51-32.22,7.39-54,0,0,2.76-4.45,4.16-13.07" style="fill:none;stroke:#263238;stroke-linecap:round;stroke-linejoin:round"></path>
		<path d="M141.54,370.89s-12.92,22-25.67,29.19" style="fill:none;stroke:#263238;stroke-linecap:round;stroke-linejoin:round"></path>
		<path d="M115.65,412.33l13.87,1.75c1,.13,2.29.53,2.19,1.59s-1.17,1.54-2.09,1.87a16.94,16.94,0,0,1-9.66.65" style="fill:none;stroke:#263238;stroke-linecap:round;stroke-linejoin:round"></path>
		<path d="M116.06,405.66a34,34,0,0,0,16.35,4.5" style="fill:none;stroke:#263238;stroke-linecap:round;stroke-linejoin:round"></path>
		<path d="M124.76,365.62s7,.27,10.6-.05c-2.67,3.66-7,5.25-11.18,5.46" style="fill:none;stroke:#263238;stroke-linecap:round;stroke-linejoin:round"></path>
		<path d="M130,277s-1,35.94-1.36,50.89-1,32.38-1,32.38a4.79,4.79,0,0,0-.63,3.63l.56,1.84-.3,5.19a4.18,4.18,0,0,0-.93,3.46c.48,1.89-3.4,15.06-3.4,15.06l-.67.87a6.12,6.12,0,0,0-1.06,6h0l-1.39,11.28,0,0a4,4,0,0,0-.88,5.18h0l-1.3,5.88h0a3.67,3.67,0,0,0-.79,4.66l.22.33" style="fill:none;stroke:#263238;stroke-linecap:round;stroke-linejoin:round"></path>
		<path d="M194.71,210.72c-1,2.19-9.52,8-9.52,8a6.5,6.5,0,0,1,.6-2.78c.61-.94,1-1.84,1.39-2.4a5.81,5.81,0,0,0-1.39-4.17c-1.16-1.29-2.07,1.93-2.58,4.07s-3.85,5.4-3.7,7c.29,1.84.66,3.65,1.13,5.45,0,0-14.25,5-15.82,2a200.19,200.19,0,0,0-11-18.75c-3.35,4.68-.71,11.14,1.18,19.08s7.71,19.06,7.71,19.06c10.42-5,22.26-18,22.26-18s2.78-1.24,6.22-2.42,2.94-2.19,3.49-5.57,3.44-8,3.27-9.74S195.73,208.54,194.71,210.72Z" style="fill:#fff;stroke:#263238;stroke-linecap:round;stroke-linejoin:round"></path>
		<path d="M161,227.61c-.13,7.24,1.3,31.79,2.85,41.53l-42.41-1.07v-.71c3.11-11.52,1.09-24-3.82-34.83-2.6-5.75-3.76-13.1-5.1-20.06-3.41-17.72,5.15-23.21,12.3-23.89,2.76-.13,3-2,5-1.85a8.55,8.55,0,0,0,4.08-.5c.89,3.63,5.82,14.29,7.51,15.51a5.22,5.22,0,0,0,5.85.42c1.7-1.19,2.17-3.46,2.56-5.5a13.17,13.17,0,0,1,.94-3.21c2.5,1.25,6.86,2.73,10.1,8.56,4,12.87,1.8,4.62,4.88,23.5C166.27,228.4,161,227.61,161,227.61Z" style="fill:#fff;stroke:#263238;stroke-linecap:round;stroke-linejoin:round"></path>
		<path d="M154.33,194.11l-4.1-1.43c2.78,9.55.37,20.4-6.66,16.11s-9.82-16.62-11.92-22c-1.1-.34-5.57-.5-7.89,1.28,2.42,4.43,9,13.23,8.23,20.38-.88,8-7.17,15.1-18.92,7.06,1.6,12.12,6.68,20.86,7.66,25,3.58,15,1.19,17.05-.48,31.85h0c17,8.67,37.57,4.36,46.58,1.72C164.08,259,165.29,221,154.33,194.11Z" style="fill:#407BFF"></path>
		<g style="clip-path:url(#freepik--clip-path-5--inject-30)">
			<path d="M128.42,257.77s27.73,12.1,31.68.35h0a64.49,64.49,0,0,1-22.16.91l-9.52-1.26" style="opacity:0.30000000000000004"></path>
			<path d="M118.59,231.59l20.15-16s4,11-6.72,17.31C124.77,237.17,118.59,231.59,118.59,231.59Z" style="opacity:0.30000000000000004"></path>
		</g>
		<path d="M154.33,194.11l-4.1-1.43c2.78,9.55.37,20.4-6.66,16.11s-9.82-16.62-11.92-22c-1.1-.34-5.57-.5-7.89,1.28,2.42,4.43,9,13.23,8.23,20.38-.88,8-7.17,15.1-18.92,7.06,1.6,12.12,6.68,20.86,7.66,25,3.58,15,1.19,17.05-.48,31.85h0c17,8.67,37.57,4.36,46.58,1.72C164.08,259,165.29,221,154.33,194.11Z" style="fill:none;stroke:#263238;stroke-linecap:round;stroke-linejoin:round"></path>
		<path d="M160.1,257.73a5.06,5.06,0,0,1-2.81,3.46" style="fill:none;stroke:#263238;stroke-linecap:round;stroke-linejoin:round"></path>
		<path d="M152.82,262.27a43.77,43.77,0,0,1-24.4-4.88" style="fill:none;stroke:#263238;stroke-linecap:round;stroke-linejoin:round"></path>
		<path d="M191.68,194.5,183,217.65a2.89,2.89,0,0,0,.25,2.53l1.61,2.58c.79,1.27,3.58,1.65,4.78.83a2.81,2.81,0,0,0,1-1.19l8.56-23.13a2.89,2.89,0,0,0-.62-3.16l-2.7-2.61a2.51,2.51,0,0,0-3.68.14A2.76,2.76,0,0,0,191.68,194.5Z" style="fill:#263238"></path>
		<path d="M113.05,200.73a28.55,28.55,0,0,0,2.46,10c4.17,9.92,20.09,34.61,23.58,36.28s39.16-17.53,41.74-20.16a6,6,0,0,0,1.14-6.13s-.05,2.46,2.05,2c1.32-.29.23-4.37.23-4.37s2.42-1.71.11-4.87c0,0,3.26,0,3-2.46-.09-1-9.69-1.13-11.16,1.64-1.79,3.36-3.57,12.12-3.57,12.12s-23.24,6-28.06,6.89L132,204.1" style="fill:#fff;stroke:#263238;stroke-linecap:round;stroke-linejoin:round"></path>
		<path d="M181.2,228.34a9.93,9.93,0,0,1,3.59-4.51c1.88-.89,4.47-1.17,6.52-1.56,0,0,1.6-6.78,2.47-6.59,2.65.55.58,6.78.58,6.78" style="fill:#fff;stroke:#263238;stroke-linecap:round;stroke-linejoin:round"></path>
		<path d="M197.55,213.24a1.93,1.93,0,0,0-2.61-.11c-1.29,1.17-3.25,4.48-5.34,6.25" style="fill:none;stroke:#263238;stroke-linecap:round;stroke-linejoin:round"></path>
		<path d="M179,220.36c.57-1.26,4.62-3.39,5.42-.66" style="fill:none;stroke:#263238;stroke-linecap:round;stroke-linejoin:round"></path>
		<path d="M179,217s4.69-2.56,5.63.61" style="fill:none;stroke:#263238;stroke-linecap:round;stroke-linejoin:round"></path>
		<path d="M179.59,214s1.95-.38,2.38-.42c1.55-.15,3.24-.35,4.08-.35" style="fill:none;stroke:#263238;stroke-linecap:round;stroke-linejoin:round"></path>
		<path d="M155.94,299.41s-6.25-5.51-9.88-6.56" style="fill:#407BFF;stroke:#263238;stroke-linecap:round;stroke-linejoin:round"></path>
		<path d="M124.38,428.11a17.74,17.74,0,0,1,5.77-1.21" style="fill:none;stroke:#263238;stroke-linecap:round;stroke-linejoin:round"></path>
		<path d="M124.24,432s2.79-1,4.78-1.43" style="fill:none;stroke:#263238;stroke-linecap:round;stroke-linejoin:round"></path>
		<line x1="124.43" y1="435.65" x2="128.91" y2="434.33" style="fill:none;stroke:#263238;stroke-linecap:round;stroke-linejoin:round"></line>
		<line x1="126.3" y1="438.67" x2="130.02" y2="437.24" style="fill:none;stroke:#263238;stroke-linecap:round;stroke-linejoin:round"></line>
		<line x1="130.15" y1="441.26" x2="132.38" y2="439.63" style="fill:none;stroke:#263238;stroke-linecap:round;stroke-linejoin:round"></line>
		<path d="M125.6,424.44s-1.22,10.2,1.67,13.51,6.21,3.41,5.82,4.7" style="fill:none;stroke:#263238;stroke-linecap:round;stroke-linejoin:round"></path>
		<path d="M149.84,192.27s4.22,16.45-2.55,17.7c-9.23,1.7-15.64-23.21-15.64-23.21h0c1.41-.09,1.58-.68,2.81-1.38C134.46,185.38,144.77,206,149.84,192.27Z" style="fill:#263238"></path>
		<path d="M121.77,189.15s-9.65,1.91-9.68,16.26,6.33,26.3,6.33,26.3,7.53-.61,12.29-4.1c10-7.3,8.38-11.4,8.38-11.4l-5.24-10.38s-1.72-6.65-9.2-17.25Z" style="fill:#263238"></path>
		<path d="M154.92,194.68c5.26,14.93,5.5,20.52,6.45,27.41,0,0,5.15-1,5.94-2.14,0,0-2.5-12.22-5.2-18.54C160.39,197.4,158.13,196,154.92,194.68Z" style="fill:#263238"></path>
		<path d="M149.83,177.73s-.75,13.68-.7,14.78c.09,2.07,1.59,4.82.21,6.37a5.22,5.22,0,0,1-5.79.93,13,13,0,0,1-4.73-4,53.22,53.22,0,0,1-6.14-9.39,9.22,9.22,0,0,0,2.44-4s.27-1.16.28-1.22a31.28,31.28,0,0,0-.11-8.48,55.49,55.49,0,0,0-2.41-10.22Z" style="fill:#fff;stroke:#263238;stroke-linecap:round;stroke-linejoin:round"></path>
		<path d="M135.61,190.79a43,43,0,0,1,6.86,2.92" style="fill:#263238;stroke:#263238;stroke-linecap:round;stroke-linejoin:round"></path>
		<path d="M133.52,144.64s-8.52,4.87-4.11,17.58,14.24,26.91,23.15,25,11.22-19.61,6.51-31.41S142.36,137.48,133.52,144.64Z" style="fill:#fff;stroke:#263238;stroke-linecap:round;stroke-linejoin:round"></path>
		<path d="M158.93,168.1c.06,1-.35,1.92-.91,2s-1.07-.8-1.13-1.84.33-1.91.91-1.95S158.87,167.05,158.93,168.1Z" style="fill:#263238"></path>
		<path d="M150.24,167.69c.06,1-.34,1.91-.89,1.95s-1.08-.8-1.14-1.83.34-1.92.91-2S150.17,166.63,150.24,167.69Z" style="fill:#263238"></path>
		<path d="M153.51,146.83c-5.71-5.56-13.48-7.28-19.7-2.25,0,0-8.51,4.87-4.1,17.59a64.61,64.61,0,0,0,3.87,8.82l.16.14s-2.8-2.79,8.31-8.93C145.7,160.14,151.09,147.29,153.51,146.83Z" style="fill:#263238;stroke:#263238;stroke-linecap:round;stroke-linejoin:round"></path>
		<path d="M144.59,151s.78-8.85,6.94-9.15c3.21-.16,7.45,4.15,8,6.42a8.14,8.14,0,0,0,6.35,6.2h0s-1.78,6-5.25,6.44c-5.73.7-8.7-.64-12.4-5.69a29.5,29.5,0,0,0-3.48-4.09Z" style="fill:#263238;stroke:#263238;stroke-linecap:round;stroke-linejoin:round"></path>
		<path d="M135.42,168s-3.37-6.94-6.37.7c-1.87,4.76,5.61,8.57,8.17,7.31" style="fill:#fff;stroke:#263238;stroke-linecap:round;stroke-linejoin:round"></path>
		<path d="M155.48,163.79a5.34,5.34,0,0,0-1.26,4.7,13.92,13.92,0,0,0,1.81,5.14L151.75,175" style="fill:none;stroke:#263238;stroke-linecap:round;stroke-linejoin:round"></path>
		<path d="M148,178.13a5,5,0,0,0,5.24,1.16" style="fill:none;stroke:#263238;stroke-linecap:round;stroke-linejoin:round"></path>
		<path d="M143.21,163.67s3-3.32,6.62-1.72" style="fill:none;stroke:#263238;stroke-linecap:round;stroke-linejoin:round"></path>
		<path d="M157.13,162.79s3.93-1.23,3.43,2.24" style="fill:none;stroke:#263238;stroke-linecap:round;stroke-linejoin:round"></path>
		<path d="M135.35,171.8a1.64,1.64,0,0,1-1.6-1.09c-.29-.63-.37-1.35-.66-2a1.66,1.66,0,0,0-1.61-1.09" style="fill:#263238;stroke:#263238;stroke-linecap:round;stroke-linejoin:round"></path>
		<path d="M147.82,144.37a19.67,19.67,0,0,0-2-5.11s1.63-.41,2.53-.6C148.15,140.41,148,142.61,147.82,144.37Z" style="fill:#263238;stroke:#263238;stroke-linecap:round;stroke-linejoin:round"></path>
		<path d="M149.53,186.84l.07,3a3.79,3.79,0,0,1-2.1.28c-3.84-.45-7.71-9-7.95-9.49,0,0,0,0,0,0l.08.09C144.17,185.73,147.54,186.81,149.53,186.84Z" style="fill:#263238"></path>
	</g>
	<g id="freepik--Envelope--inject-30">
		<line x1="279.26" y1="215.62" x2="304.53" y2="215.62" style="fill:none;stroke:#263238;stroke-linecap:round;stroke-linejoin:round"></line>
		<line x1="250.27" y1="215.62" x2="275.93" y2="215.62" style="fill:none;stroke:#263238;stroke-linecap:round;stroke-linejoin:round"></line>
		<line x1="236.6" y1="215.62" x2="244.49" y2="215.62" style="fill:none;stroke:#263238;stroke-linecap:round;stroke-linejoin:round"></line>
		<line x1="257.35" y1="229.34" x2="304.43" y2="229.34" style="fill:none;stroke:#263238;stroke-linecap:round;stroke-linejoin:round"></line>
		<line x1="244.49" y1="229.34" x2="250.27" y2="229.34" style="fill:none;stroke:#263238;stroke-linecap:round;stroke-linejoin:round"></line>
		<line x1="278.42" y1="243.07" x2="304.33" y2="243.07" style="fill:none;stroke:#263238;stroke-linecap:round;stroke-linejoin:round"></line>
		<line x1="252.38" y1="243.07" x2="274.59" y2="243.07" style="fill:none;stroke:#263238;stroke-linecap:round;stroke-linejoin:round"></line>
		<line x1="274.87" y1="256.79" x2="304.23" y2="256.79" style="fill:none;stroke:#263238;stroke-linecap:round;stroke-linejoin:round"></line>
		<line x1="260.27" y1="256.79" x2="270.7" y2="256.79" style="fill:none;stroke:#263238;stroke-linecap:round;stroke-linejoin:round"></line>
		<polygon points="361.21 257.29 287.63 257.29 291.32 215.1 364.9 215.1 361.21 257.29" style="fill:#fff;stroke:#263238;stroke-linecap:round;stroke-linejoin:round"></polygon>
		<line x1="364.9" y1="215.11" x2="291.32" y2="215.11" style="fill:#fff;stroke:#263238;stroke-linecap:round;stroke-linejoin:round"></line>
		<polygon points="361.21 257.29 287.63 257.29 312.78 233.41 325.56 244.3 340.52 233.2 361.21 257.29" style="fill:#fff;stroke:#263238;stroke-linecap:round;stroke-linejoin:round"></polygon>
		<polygon points="364.9 215.1 340.52 233.2 325.56 244.3 312.78 233.41 291.32 215.1 364.9 215.1" style="fill:#fff;stroke:#263238;stroke-linecap:round;stroke-linejoin:round"></polygon>
		<line x1="229.56" y1="215.62" x2="211.09" y2="215.62" style="fill:none;stroke:#263238;stroke-linecap:round;stroke-linejoin:round"></line>
	</g>
	<g id="freepik--speech-bubble--inject-30">
		<path d="M300.33,167.29c-14.74,12-41.95,19.33-41.95,19.33l13.71-14.69h0a31.36,31.36,0,1,1,28.45-4.78" style="fill:#fff;stroke:#263238;stroke-linecap:round;stroke-linejoin:round"></path>
		<circle cx="301.08" cy="119.34" r="9.23" style="fill:#407BFF;stroke:#263238;stroke-linecap:round;stroke-linejoin:round"></circle>
		<polygon points="295.73 117.28 301.08 123.3 313.25 108.9 312.82 108.45 301.08 118.55 297.97 115.16 295.73 117.28" style="fill:#263238;stroke:#263238;stroke-linecap:round;stroke-linejoin:round"></polygon>
		<line x1="265.48" y1="134.49" x2="299.95" y2="134.49" style="fill:#fff;stroke:#263238;stroke-linecap:round;stroke-linejoin:round"></line>
		<line x1="264.7" y1="143.39" x2="299.17" y2="143.39" style="fill:#fff;stroke:#263238;stroke-linecap:round;stroke-linejoin:round"></line>
		<line x1="263.93" y1="152.29" x2="298.39" y2="152.29" style="fill:#fff;stroke:#263238;stroke-linecap:round;stroke-linejoin:round"></line>
	</g>
	<g id="freepik--paper-plane--inject-30">
		<polygon points="372.48 55.95 372.48 71.73 415.65 38.45 372.48 55.95" style="fill:#407BFF;stroke:#263238;stroke-linecap:round;stroke-linejoin:round"></polygon>
		<polygon points="372.48 55.95 416.64 37.91 356.34 44.16 372.48 55.95" style="fill:#407BFF;stroke:#263238;stroke-linecap:round;stroke-linejoin:round"></polygon>
		<polygon points="377.67 59.22 398.46 74.6 416.64 37.91 377.67 59.22" style="fill:#407BFF;stroke:#263238;stroke-linecap:round;stroke-linejoin:round"></polygon>
		<polygon points="377.67 59.22 372.48 71.73 383.54 63.56 377.67 59.22" style="fill:#407BFF;stroke:#263238;stroke-linecap:round;stroke-linejoin:round"></polygon>
		<path d="M207.05,191.47c.11-.32.23-.63.34-.94" style="fill:none;stroke:#263238;stroke-linecap:round;stroke-linejoin:round"></path>
		<path d="M208.7,186.75c9.3-27.77,7.63-44.46,22.73-71.36,3-5.44,18.19-31.18,39.77-40.36,11.22-4.77,18.36,2.35,15.47,7.39-6.45,11.22-30.14-2.23-6.45-15.51,21.92-12.28,68.58,11.73,90.45,4.84" style="fill:none;stroke:#263238;stroke-linecap:round;stroke-linejoin:round;stroke-dasharray:1.9975199699401855,3.995039939880371"></path>
		<path d="M372.54,71.06c.31-.13.61-.27.91-.42" style="fill:none;stroke:#263238;stroke-linecap:round;stroke-linejoin:round"></path>
	</g>
</svg>